<?xml version="1.0" encoding="iso-8859-1"?>
<!-- Generator: Adobe Illustrator 17.1.0, SVG Export Plug-In . SVG Version: 6.00 Build 0)  -->
<!DOCTYPE svg PUBLIC "-//W3C//DTD SVG 1.1//EN" "http://www.w3.org/Graphics/SVG/1.1/DTD/svg11.dtd">
<svg version="1.1" id="Capa_1" xmlns="http://www.w3.org/2000/svg" xmlns:xlink="http://www.w3.org/1999/xlink" x="0px" y="0px"
	 viewBox="0 0 209.192 209.192" style="enable-background:new 0 0 209.192 209.192;" xml:space="preserve">
<path d="M207.727,41.972l-12.688-12.688l2.621-2.621c1.953-1.952,1.953-5.118,0-7.07l-8.061-8.061c-1.953-1.953-5.118-1.953-7.071,0
	l-2.62,2.62L167.22,1.465c-1.953-1.952-5.118-1.953-7.071,0l-12.333,12.332l-5.77-5.77c-1.953-1.953-5.118-1.953-7.071,0
	l-15.869,15.868c-0.938,0.938-1.464,2.209-1.464,3.535c0,1.326,0.527,2.598,1.464,3.535L141.1,52.96L52.96,141.1l-21.993-21.993
	c-1.952-1.952-5.117-1.953-7.071,0L8.027,134.974c-0.937,0.938-1.464,2.209-1.464,3.535c0,1.326,0.527,2.598,1.464,3.535
	l5.771,5.771L1.464,160.149C0.527,161.087,0,162.358,0,163.684s0.527,2.598,1.464,3.535l12.688,12.688l-2.621,2.621
	c-1.953,1.952-1.953,5.118,0,7.07l8.061,8.061c0.976,0.977,2.256,1.465,3.536,1.465s2.559-0.488,3.536-1.465l2.62-2.62
	l12.688,12.688c0.977,0.977,2.256,1.465,3.536,1.465s2.559-0.488,3.536-1.465l12.333-12.333l5.77,5.77
	c0.977,0.977,2.256,1.465,3.536,1.465c1.28,0,2.559-0.488,3.536-1.465l15.868-15.868c1.953-1.952,1.953-5.118,0-7.07l-21.994-21.994
	l88.14-88.14l21.994,21.994c0.938,0.938,2.21,1.465,3.536,1.465c1.326,0,2.598-0.526,3.536-1.465l15.868-15.868
	c1.953-1.952,1.953-5.118,0-7.07l-5.771-5.771l12.333-12.333C209.68,47.09,209.68,43.924,207.727,41.972z"/>
<g>
</g>
<g>
</g>
<g>
</g>
<g>
</g>
<g>
</g>
<g>
</g>
<g>
</g>
<g>
</g>
<g>
</g>
<g>
</g>
<g>
</g>
<g>
</g>
<g>
</g>
<g>
</g>
<g>
</g>
</svg>
