<svg xmlns="http://www.w3.org/2000/svg" xmlns:xlink="http://www.w3.org/1999/xlink" version="1.0" x="0px" y="0px" viewBox="0 0 24 24" enable-background="new 0 0 24 24" xml:space="preserve"><path fill="none" stroke="#000000" stroke-width="2" stroke-linecap="round" stroke-miterlimit="10" d="M8,5.4c0,0,0,0.8,0,1.7  c0,1.6,0.6,3.1,1.7,4.2l0.7,0.7h3.2l0.7-0.7c1.1-1.1,1.7-2.6,1.7-4.2c0-0.9,0-1.7,0-1.7"></path><circle cx="12" cy="8" r="2"></circle><path d="M12.8,11.2H12h-0.8l-2.3,0.5l1.1,3.7l-2.2,4c0,0,2.9-1.5,3.5-1.8c0.6-0.3,4.8-1.4,4.8-1.4l-1.7-0.6l0.9-4.1L12.8,11.2z"></path><path fill="none" stroke="#000000" stroke-miterlimit="10" d="M3.5,6.1c0,0,3.1-1.6,8.5-1.6s8.5,1.6,8.5,1.6"></path><rect x="18.4" y="2.2" transform="matrix(0.9857 0.1682 -0.1682 0.9857 1.2417 -3.272)" width="3" height="7"></rect><rect x="2.6" y="2.2" transform="matrix(-0.9857 0.1682 -0.1682 -0.9857 9.0366 10.6187)" width="3" height="7"></rect><path d="M6.9,22l2-1.3c0.2-0.1,0.4-0.3,0.6-0.5l2.1-2.4l0.5-0.2c1.1-0.4,2.2-0.4,3.3,0h0c0.4,0.1,0.7,0.5,0.7,0.9V22h2v-3.4  c0-1.3-0.8-2.4-2-2.8l-2.3-0.8l-3.2,1.2l-2.1,2.4c-0.2,0.2-0.4,0.4-0.6,0.5L3.2,22H6.9z"></path></svg>